<svg xmlns="http://www.w3.org/2000/svg" xmlns:xlink="http://www.w3.org/1999/xlink" id="ezoAF7pmLVg1" shape-rendering="geometricPrecision" text-rendering="geometricPrecision" viewBox="304.02 0 346.67 144.34"><g><g><path d="M519.56,306.27c-.000001,39.858392-32.311611,72.170001-72.170002,72.17s-72.169999-32.311611-72.169998-72.170002s32.311611-72.169999,72.17-72.169998c19.140674,0,37.497396,7.603603,51.031896,21.138104s21.138104,31.891222,21.138104,51.031896" transform="translate(-71.2-234.1)" fill="#2638c4"/></g></g><path d="M700.35,298.23c-7.89-4.09-14.28-7.42-14.28-13.75c0-4.48,3.84-7.26,10.28-7.26c6.930319.065537,13.71616,1.989056,19.65,5.57v-16.3c-6.224859-2.680672-12.904682-4.146975-19.68-4.32-19,0-27.56,11.34-27.56,23.61c0,14.4,9.69,21.32,20.39,27s14.54,8,14.54,14c0,5.09-4.42,8-11.82,8-10.28,0-17.58-4.75-22.31-8.55v17.32c6.663779,4.194839,14.320521,6.548105,22.19,6.82c18.48,0,30.14-9.64,30.14-25.16.03-16.04-13.65-22.89-21.54-26.98Z" transform="translate(-71.2-234.1)" fill="#2638c4"/><path d="M559.42,263h-22.82v86.59h17v-27.59h3.43c21.33,0,34.59-11.35,34.59-29.61.04-18.39-12.01-29.39-32.2-29.39Zm-5.78,14.43h5c10,0,16.46,5.79,16.46,14.75c0,9.7-6,15.27-16.33,15.27h-5.14l.01-30.02Z" transform="translate(-71.2-234.1)" fill="#2638c4"/><path d="M646.05,302.94c5.77-4.05,8.58-9.89,8.58-17.81c0-13.67-10-22.16-26.22-22.16h-26.41v86.59h27.61c21.16,0,30.8-13.58,30.8-26.21-.02-9.99-5.48-17.71-14.36-20.41Zm-18.86-25.38c6.67,0,11,4.15,11,10.58s-4.67,10.71-11.89,10.71h-7.3v-21.29h8.19ZM619,335.11v-22.61h10.78c8.6,0,13.73,4.21,13.73,11.24c0,7.55-5.15,11.37-15.3,11.37h-9.21Z" transform="translate(-71.2-234.1)" fill="#2638c4"/><path d="M500,307l-8,1.63v14.81c-.036235,2.436679-1.050418,4.756518-2.814478,6.43783s-4.129913,2.582955-6.565522,2.50217h-4.1v17.21h-13.24v-17.24h4.1c2.435609.080785,4.801462-.820859,6.565522-2.50217s2.778243-4.001151,2.814478-6.43783v-14.81l8-1.63c.820009-.165779,1.514249-.707678,1.87416-1.462901s.343553-1.635765-.04416-2.377099l-21-40.16h13.18l21,40.16c.400014.73537.430516,1.616143.082334,2.377424s-1.034424,1.314241-1.852334,1.492576Z" transform="translate(-71.2-234.1)" fill="#fff"/><path d="M473,303.13L452,263h-21.79c-19.77,0-36.56,16.18-36.09,35.95.35,14.75,9.86,25.8,23.09,30v20.68h32.43v-17.28h4.09c2.435609.080785,4.801462-.820859,6.565522-2.50217s2.778243-4.001151,2.814478-6.43783v-14.81l8-1.63c.830878-.149986,1.541211-.68552,1.914054-1.443044s.363917-1.647067-.024054-2.396956Zm-27.33-2.29c-3.337721.004046-6.349038-2.003435-7.629132-5.085926s-.57673-6.632603,1.781964-8.99416s5.907951-3.069227,8.991992-1.792872s5.095174,4.285235,5.095176,7.622958c.000026,2.194984-.874657,4.299489-2.430494,5.847819s-3.664548,2.412823-5.859506,2.402181h.05Z" transform="translate(-71.2-234.1)" fill="#fff"/></svg>