<svg id="eKaVH34P8Es1" xmlns="http://www.w3.org/2000/svg" xmlns:xlink="http://www.w3.org/1999/xlink" viewBox="0 0 1612 1612" shape-rendering="geometricPrecision" text-rendering="geometricPrecision"><ellipse rx="139.399875" ry="136.040842" transform="matrix(1.063462 0 0 1.095224 806 283.15992)" fill="#020202" stroke-width="0"/><path d="M799.629145,498.053983c0,0-77.640625,43.880274-114.827911-14.224482L577.852869,235.094394c0,0,5.892565,181.956583,12.735062,259.64209c1.595413,18.113342-23.114221,14.697888-51.560348,14.35791-34.28981-.409819-76.369399,7.183255-115.379548,7.183255-49.61264,7.547028-81.901702,4.989563-123.968109,0-15.018451-1.781362-43.717976-3.041584-44.753906-21.541165-4.35539-77.778331,3.616292-259.64209,3.616292-259.64209s-62.355329,176.720601-97.548299,248.735107c-16.183378,33.115647-72.197748,30.589091-102.77893,22.717865-36.726563-9.452972-50.150613-45.415958-44.778952-69.675628c19.364889-87.456336,87.334862-249.068713,87.334862-249.068713s33.590331-100.814981,67.035291-141.385877c21.75059-26.38487,57.248935-43.12964,105.505903-43.12964c86.447979,0,223.731021-6.57501,288.141177-3.287505s113.753418,57.843052,113.753418,57.843052l62.352203,129.95997c34.069999,88.967898,82.273435,205.373531,85.404131,225.728671c10.0771,56.386126-23.333971,84.522287-23.333971,84.522287Z" transform="translate(384.441343 460.534356)" fill="#020202" stroke-width="0"/><path d="M0,0L367.574399,26.497187L715.474057,0c0,0-90.728323,375.031749-151.156492,529.497187-21.237558,54.287078-65.052134,58.333611-95.572207,54.974578-27.118511-2.984658-75.738483-16.252618-75.738483-70.539696c0-92.378108-16.781689-187.693893-16.781689-291.674404c0-27.373518.057845-46.422167-22.795986-46.422167-24.075642,0-16.781128,20.60357-17.683842,49.779768-3.296875,106.556705,0,190.904842,0,288.316803c0,57.373755-64.27954,70.539696-100.613039,70.539696-29.000794,0-70.539696-16.795166-90.914305-54.287078C65.511457,385.354457,0,0,0,0Z" transform="translate(454.981039 893.502813)" fill="#020202" stroke-width="0"/></svg>
