<?xml version="1.0" encoding="UTF-8"?>
<svg version="1.1" xmlns="http://www.w3.org/2000/svg" width="1612" height="1612">
<path d="M0 0 C1.02773529 0.11952026 2.05547058 0.23904053 3.11434937 0.36218262 C13.51686646 1.58340645 23.84238554 2.98969702 34.12109375 5.01953125 C34.91675247 5.17611206 35.71241119 5.33269287 36.53218079 5.49401855 C55.05927132 9.32914247 72.25596684 18.22085363 86.1875 31 C86.6717041 31.43650879 87.1559082 31.87301758 87.65478516 32.32275391 C93.69408866 37.81919867 98.93545903 43.59152343 103.5 50.375 C103.8719751 50.92623535 104.2439502 51.4774707 104.62719727 52.04541016 C111.72159248 63.07905756 116.63333192 75.16940897 121.29302979 87.36990356 C122.64768596 90.9160373 124.01846492 94.45588767 125.38769531 97.99641418 C126.13489591 99.92904482 126.88129819 101.86198427 127.62695312 103.79521179 C131.84491113 114.72597836 136.13353978 125.62881548 140.42330933 136.53155518 C142.2999764 141.30153241 144.17487607 146.07220367 146.04988098 150.84283447 C147.47999915 154.48139991 148.91038739 158.11985908 150.34082031 161.75830078 C154.5026035 172.34480344 158.66144903 182.93246007 162.82046509 193.52005005 C164.1871061 196.99899727 165.55386036 200.47789997 166.9206543 203.95678711 C171.1119349 214.62487703 175.30280625 225.29312715 179.49215698 235.9619751 C192.06698177 267.98998261 192.06698177 267.98998261 204.6875 300 C210.4878231 314.6807725 216.27281184 329.36756084 222.04833984 344.05810547 C222.99543028 346.46676702 223.9428436 348.87530165 224.890625 351.28369141 C227.55380081 358.05163999 230.20957798 364.82241298 232.85601807 371.59692383 C233.76595572 373.9225935 234.67846832 376.24725692 235.59320068 378.57104492 C236.97854742 382.09182355 238.35532485 385.61585088 239.73046875 389.140625 C240.35892448 390.729888 240.35892448 390.729888 241.00007629 392.35125732 C249.0930217 413.19716979 249.036483 434.31117662 240.1875 455 C231.53209168 474.46139356 215.6766839 487.25077953 196.1875 495 C190.66818238 496.88272443 185.09285905 498.04790778 179.359375 499.07421875 C178.38581055 499.24912842 177.41224609 499.42403809 176.40917969 499.60424805 C175.67602539 499.73484619 174.94287109 499.86544434 174.1875 500 C173.84944336 501.21349121 173.51138672 502.42698242 173.16308594 503.67724609 C164.18951756 535.86163431 155.0649809 568.00182386 145.875 600.125 C143.44109428 608.63272329 141.00733717 617.14048901 138.57421875 625.6484375 C138.25168247 626.7762476 137.92914619 627.90405769 137.59683609 629.06604385 C129.48219803 657.44396799 121.4034808 685.83211163 113.3236475 714.21996021 C110.1078814 725.51805433 106.89042875 736.81566728 103.67211914 748.11303711 C103.21179568 749.72898257 102.75147458 751.34492871 102.29115582 752.96087551 C102.06324228 753.7609647 101.83532875 754.56105388 101.60050875 755.3853882 C100.67988394 758.61724473 99.7592611 761.84910183 98.83864045 765.08095956 C98.37851759 766.69621367 97.91838738 768.31146569 97.45824981 769.92671561 C91.7974463 789.79823543 86.14264171 809.67143721 80.50008774 829.5481472 C77.13038868 841.41799227 73.75587961 853.28646319 70.37768936 865.15389442 C68.22069374 872.73214162 66.06808475 880.31160577 63.92141497 887.89278454 C62.30195412 893.61042097 60.67487 899.32586979 59.04493332 905.04052925 C58.38559264 907.35683586 57.72874605 909.6738542 57.07466507 911.99165154 C48.75225274 941.47067921 37.24760269 967.01111786 9.55859375 983.1875 C-13.05009771 995.34327385 -38.65939906 999.20434834 -63.671875 992.3203125 C-76.02340393 988.53816512 -86.6089358 982.89775199 -96.8125 975 C-97.61042969 974.38640625 -98.40835937 973.7728125 -99.23046875 973.140625 C-116.79818118 958.58896232 -127.90493962 936.44164803 -130.8125 914 C-131.10742998 908.36709034 -131.11392632 902.74249144 -131.11547852 897.10302734 C-131.1231897 895.41078225 -131.13177144 893.71854094 -131.14114666 892.02630424 C-131.16422513 887.4276326 -131.17535087 882.82900045 -131.1844244 878.23028278 C-131.19625686 873.32510244 -131.2194052 868.41997502 -131.24139404 863.51483154 C-131.27757435 855.1428968 -131.30723431 846.77096074 -131.33267212 838.39898682 C-131.37260555 825.38165016 -131.43025143 812.36442197 -131.4909668 799.34716797 C-131.51097334 795.01223798 -131.53086121 790.67730745 -131.55070496 786.34237671 C-131.55560772 785.27261947 -131.56051049 784.20286223 -131.56556183 783.1006881 C-131.61923492 771.32950874 -131.66852793 759.55831199 -131.71679688 747.78710938 C-131.7231308 746.24650852 -131.7231308 746.24650852 -131.72959268 744.67478442 C-131.77200125 734.3343854 -131.81318301 723.99398378 -131.8503418 713.65356445 C-131.85325617 712.84350736 -131.85617055 712.03345026 -131.85917324 711.19884598 C-131.86203415 710.4032253 -131.86489507 709.60760462 -131.86784267 708.78787422 C-131.87347921 707.22121301 -131.87912013 705.65455181 -131.88476562 704.08789062 C-131.88750429 703.32763698 -131.89024296 702.56738334 -131.89306462 701.78409171 C-131.93535908 690.15846666 -131.99169459 678.53300048 -132.06397152 666.90751839 C-132.10755514 659.8087138 -132.13423243 652.71013738 -132.14718437 645.61121368 C-132.15903363 641.33003087 -132.18710975 637.04907856 -132.22031403 632.768013 C-132.23205365 630.84201225 -132.23716721 628.91595663 -132.23479462 626.98992157 C-132.23247924 624.41482311 -132.25436067 621.84103291 -132.2824707 619.26611328 C-132.27587213 618.53629431 -132.26927355 617.80647533 -132.26247501 617.05454063 C-132.38615862 610.23998503 -134.80778906 605.09795331 -139.5 600.1875 C-145.37091637 596.31047976 -150.27980986 594.48073088 -157.375 595.375 C-164.17301558 596.91957016 -168.53167242 600.62791841 -172.38485718 606.324646 C-174.51064776 611.79732641 -174.28651252 617.02754815 -174.31103516 622.85253906 C-174.32698874 624.19867606 -174.34414269 625.54479926 -174.36237717 626.89090729 C-174.40887595 630.63325212 -174.43598796 634.37552925 -174.45966673 638.11807919 C-174.48261194 641.37405393 -174.51656991 644.62988085 -174.55023968 647.88575959 C-174.97389478 689.22369706 -174.99706532 730.56660849 -175.109375 771.90625 C-175.11282032 773.16742425 -175.11626563 774.4285985 -175.11981535 775.72799015 C-175.15848491 790.01070973 -175.19128809 804.29341746 -175.21386719 818.57617188 C-175.23223769 830.15063699 -175.26113298 841.72502534 -175.3018719 853.29943395 C-175.32276013 859.36023291 -175.33837452 865.42093652 -175.34067917 871.48177338 C-175.34283239 877.12655764 -175.3587698 882.7711374 -175.38506889 888.41585922 C-175.3922149 890.47045894 -175.39438593 892.52508354 -175.39096642 894.57969284 C-175.35327164 921.53965475 -181.60269941 946.89853978 -200.703125 966.9921875 C-222.04800306 987.30934921 -245.88057067 995.94470102 -275.05859375 995.28125 C-299.85800979 994.3111017 -322.16924217 982.53899848 -339.0625 964.625 C-351.9092131 949.97203498 -358.28662335 932.84301721 -363.33984375 914.36328125 C-363.84479062 912.55545921 -364.35095944 910.7479781 -364.85824585 908.94081116 C-365.93778625 905.08621696 -367.00948582 901.22956619 -368.07485962 897.37103271 C-369.7860198 891.17471999 -371.5157641 884.98368773 -373.2487793 878.79345703 C-375.04139674 872.38806706 -376.83343085 865.98252368 -378.61976624 859.57537842 C-383.57954746 841.78940801 -388.62847298 824.03001187 -393.71841431 806.28091431 C-396.17198524 797.72494845 -398.61903115 789.16711475 -401.06640625 780.609375 C-401.32467131 779.70646036 -401.58293636 778.80354572 -401.84902763 777.87327003 C-406.67263509 761.00808624 -411.47725642 744.13751591 -416.27734375 727.265625 C-416.4633881 726.6117161 -416.64943246 725.95780721 -416.84111452 725.28408289 C-420.3356626 713.00142097 -423.82953777 700.71856764 -427.32277358 688.43553245 C-429.89035096 679.40736813 -432.45844753 670.37935165 -435.02734375 661.3515625 C-435.22527133 660.65598535 -435.42319892 659.9604082 -435.62712431 659.24375296 C-441.9157434 637.14471068 -448.22499409 615.0516198 -454.54713774 592.96214628 C-455.39895562 589.98571665 -456.25057127 587.00922917 -457.10217106 584.03273714 C-458.1471477 580.38036653 -459.19221326 576.72802136 -460.23730469 573.07568359 C-460.44158766 572.36175957 -460.64587062 571.64783555 -460.85634398 570.91227746 C-463.28131118 562.43791281 -465.70819293 553.96410071 -468.13786989 545.49108517 C-469.82476741 539.6079174 -471.50910704 533.72402052 -473.19254875 527.83986282 C-473.88456624 525.42289772 -474.57753115 523.00620365 -475.27148628 520.58979416 C-476.2150308 517.30402913 -477.15539708 514.01737107 -478.0949707 510.73046875 C-478.37355801 509.763388 -478.65214531 508.79630726 -478.93917465 507.79992104 C-479.31319853 506.48779923 -479.31319853 506.48779923 -479.69477844 505.14916992 C-479.91219853 504.3906926 -480.12961863 503.63221527 -480.3536272 502.85075378 C-480.8125 501 -480.8125 501 -480.8125 499 C-481.493125 498.98582031 -482.17375 498.97164062 -482.875 498.95703125 C-502.3343727 497.99958871 -520.06613776 489.56607304 -533.46044922 475.50927734 C-546.53427055 460.91513443 -553.38486087 443.16876561 -553.25 423.6875 C-553.26998047 422.67494141 -553.28996094 421.66238281 -553.31054688 420.61914062 C-553.30106322 405.53064927 -547.44442901 391.84467419 -541.9375 378.0625 C-541.23696049 376.2907749 -540.53728196 374.51870917 -539.83837891 372.74633789 C-538.31738385 368.89215796 -536.79198603 365.03975985 -535.26367188 361.18847656 C-532.70804582 354.7433512 -530.17263349 348.29037171 -527.640625 341.8359375 C-527.19850677 340.70903 -526.75638855 339.5821225 -526.3008728 338.42106628 C-525.39178502 336.10386934 -524.48271745 333.78666446 -523.57366943 331.4694519 C-521.22606775 325.48777605 -518.87470413 319.50757973 -516.5234375 313.52734375 C-511.40667976 300.51237966 -506.29263625 287.49635088 -501.17953491 274.47994995 C-499.8128939 271.00100273 -498.44613964 267.52210003 -497.0793457 264.04321289 C-492.8880651 253.37512297 -488.69719375 242.70687285 -484.50784302 232.0380249 C-466.53453035 186.26625755 -466.53453035 186.26625755 -458.44888306 165.81570435 C-454.41334708 155.60868988 -450.39622546 145.39458323 -446.390625 135.17578125 C-445.66284329 133.31998376 -444.9350615 131.46418631 -444.20726013 129.60839653 C-443.96548538 128.99190302 -443.72371063 128.37540951 -443.47460938 127.74023438 C-443.23198868 127.12160082 -442.98936798 126.50296726 -442.73939514 125.86558723 C-441.5535019 122.84137735 -440.36853413 119.81680944 -439.18481445 116.79174805 C-434.14708097 103.91754026 -429.0620815 91.06397602 -423.86328125 78.25390625 C-423.41003479 77.13341385 -422.95678833 76.01292145 -422.48980713 74.85847473 C-410.38024378 45.14766644 -390.31261819 23.89622653 -360.8125 11 C-283.40287879 -21.4120463 -169.20649266 -12.39235488 0 0 Z M-249.8125 47 C-250.83166504 47.09192627 -251.85083008 47.18385254 -252.90087891 47.27856445 C-273.8050188 49.16664953 -294.6887635 51.32326694 -315.5 54.0625 C-317.11708862 54.26927368 -317.11708862 54.26927368 -318.7668457 54.48022461 C-336.83566365 57.0210845 -353.43196275 62.9557689 -364.8125 78 C-371.64280625 87.94733181 -375.60922341 99.04880087 -379.875 110.25 C-380.64962232 112.26021887 -381.42545161 114.26997301 -382.20239258 116.27929688 C-383.43813811 119.4760142 -384.672952 122.67306677 -385.90403748 125.87158203 C-390.40674531 137.56971294 -394.99265963 149.2348314 -399.58297729 160.89880371 C-401.00569402 164.51447067 -402.42700426 168.13068754 -403.84790039 171.74707031 C-409.28087001 185.57348469 -414.72661427 199.39479025 -420.18609619 213.21075439 C-425.93412708 227.75827931 -431.65664656 242.31578667 -437.375 256.875 C-438.07074631 258.64638336 -438.07074631 258.64638336 -438.7805481 260.45355225 C-442.12497484 268.96886097 -445.46879991 277.48440592 -448.8125 286 C-452.6245984 295.70849109 -456.43703689 305.41684849 -460.25 315.125 C-460.94260422 316.88858856 -460.94260422 316.88858856 -461.64920044 318.68780518 C-466.74332732 331.65824195 -471.84401909 344.62599849 -476.96850586 357.58447266 C-478.17592298 360.63798127 -479.38124337 363.69230122 -480.58422852 366.74755859 C-481.16292156 368.21712303 -481.74161621 369.68668684 -482.3203125 371.15625 C-482.74373177 372.2317662 -482.74373177 372.2317662 -483.17570496 373.32901001 C-485.03299853 378.04053914 -486.90924629 382.74418338 -488.79437256 387.44464111 C-490.11769985 390.75076086 -491.43064146 394.06094656 -492.74169922 397.37194824 C-493.36144227 398.93018448 -493.98563379 400.4866605 -494.61474609 402.0411377 C-500.45587622 415.6802857 -500.45587622 415.6802857 -499.8125 430.125 C-497.05140743 436.36912218 -492.05315978 442.13266983 -485.8125 445 C-478.95246849 446.99254027 -472.47066479 446.70542897 -466.07470703 443.41210938 C-458.5349678 438.70567168 -455.16731589 431.19945619 -452.125 423.1875 C-451.42566567 421.41190029 -450.72633113 419.63630065 -450.0269928 417.86070251 C-449.22170435 415.80632158 -448.42497457 413.74877745 -447.62988281 411.69042969 C-445.58513825 406.40214057 -443.50717542 401.12705609 -441.4296875 395.8515625 C-438.02804782 387.20691067 -434.63724161 378.5580815 -431.25390625 369.90625 C-426.28532519 357.20188494 -421.30100431 344.5037464 -416.31118774 331.80770874 C-414.92952432 328.29220669 -413.54809992 324.77661081 -412.16674805 321.26098633 C-410.30948208 316.5341504 -408.45213793 311.8073452 -406.59472656 307.08056641 C-402.91463965 297.71522736 -399.23536429 288.34956953 -395.55615234 278.98388672 C-393.73116582 274.33829684 -391.90595649 269.6927946 -390.08056641 265.04736328 C-384.91215116 251.8937459 -379.74805412 238.73844547 -374.58789062 225.58158875 C-370.9098122 216.20549909 -367.22385761 206.83252618 -363.53320312 197.46138 C-361.19272577 191.5164726 -358.86153624 185.5681008 -356.5423584 179.61485291 C-355.26337101 176.33687832 -353.97607029 173.06221941 -352.6862793 169.78848267 C-352.11625541 168.33632731 -351.5498384 166.88274942 -350.98754883 165.42758179 C-347.10484586 155.3851211 -342.96156339 146.31326202 -334.8125 139 C-334.090625 138.34 -333.36875 137.68 -332.625 137 C-321.29042549 128.93985813 -309.45983367 126.70577068 -295.8125 128 C-286.81757829 129.64169609 -279.81223471 133.18749944 -272.8125 139 C-272.16539062 139.52335937 -271.51828125 140.04671875 -270.8515625 140.5859375 C-263.59115113 147.08543239 -258.44960058 157.55132353 -257.61657524 167.29065895 C-257.52891025 170.1789021 -257.52579517 173.0569654 -257.54858398 175.9465332 C-257.55661246 177.72913906 -257.55661246 177.72913906 -257.56480312 179.54775715 C-257.74680554 201.33216031 -258.92802349 223.11370519 -259.86472249 244.87486815 C-260.12363363 250.92192044 -260.37641922 256.96922526 -260.62904256 263.01654295 C-261.12852081 274.97059592 -261.6323906 286.92445892 -262.13989258 298.87817383 C-262.17006104 299.58879686 -262.20022949 300.2994199 -262.23131215 301.03157697 C-262.38431582 304.63522958 -262.53737228 308.23887994 -262.69045258 311.8425293 C-262.99910918 319.10895476 -263.30744021 326.37539401 -263.61547852 333.6418457 C-263.64591387 334.35976397 -263.67634923 335.07768223 -263.70770688 335.8173556 C-264.21420791 347.76797548 -264.71664523 359.71876305 -265.21625894 371.66967279 C-265.55120401 379.67625641 -265.89153495 387.68258554 -266.2356931 395.68877923 C-266.44753947 400.64023862 -266.65515418 405.59186872 -266.86159325 410.54355621 C-266.95854611 412.84758217 -267.05730595 415.15153286 -267.15795135 417.45540047 C-267.29440863 420.58440335 -267.42458277 423.71360442 -267.55311584 426.84294128 C-267.61584933 428.22817365 -267.61584933 428.22817365 -267.67985016 429.6413905 C-267.7635527 431.75973513 -267.79421177 433.88008122 -267.8125 436 C-266.29046156 437.52203844 -264.84604666 437.24026603 -262.72119141 437.37304688 C-261.84741852 437.42980591 -260.97364563 437.48656494 -260.07339478 437.54504395 C-259.11331512 437.60236694 -258.15323547 437.65968994 -257.1640625 437.71875 C-256.16410248 437.78155151 -255.16414246 437.84435303 -254.13388062 437.90905762 C-251.99352679 438.04237015 -249.85302694 438.17335446 -247.71240234 438.30224609 C-244.54094098 438.49375375 -241.37008572 438.69345188 -238.19921875 438.89453125 C-211.5962747 440.55300087 -185.04911047 441.2042137 -158.40154648 441.18888092 C-155.9645251 441.1874796 -153.52750635 441.1875851 -151.09048462 441.18768311 C-124.62133205 441.17977533 -98.23730436 440.62028093 -71.8125 439 C-70.26742719 438.90816665 -68.72234268 438.81653003 -67.17724609 438.72509766 C-52.8619135 438.273389 -52.8619135 438.273389 -38.8125 436 C-39.49290317 411.15697587 -40.51797193 386.33152326 -41.58499336 361.50251579 C-41.88584855 354.49971399 -42.18319752 347.49676574 -42.47996521 340.49378967 C-43.32313396 320.6074129 -44.16952175 300.72117577 -45.0222168 280.83520508 C-45.49571795 269.79184537 -45.96569025 258.74834111 -46.43187374 247.70467001 C-46.72487907 240.76800413 -47.02206404 233.83153501 -47.32252324 226.89518821 C-47.50920805 222.56105523 -47.69174036 218.22675425 -47.87318039 213.89239883 C-47.95694111 211.91045155 -48.04231337 209.92857147 -48.12957954 207.94677544 C-48.58880435 197.4958772 -48.90098914 187.05352909 -48.96080017 176.59205627 C-48.97587359 175.16476052 -48.97587359 175.16476052 -48.99125153 173.7086305 C-49.00247046 160.5221555 -44.83436668 150.41342059 -35.7109375 140.78125 C-24.83213492 130.4790624 -12.6596231 127.33545365 1.9296875 127.69140625 C13.75202108 128.32427662 25.01176139 134.20533885 33.0625 142.8125 C38.99056782 150.31496705 42.2913349 159.41842454 45.71484375 168.2578125 C46.13592911 169.33352509 46.55701447 170.40923767 46.99085999 171.51754761 C48.37321783 175.05169765 49.74905629 178.58834841 51.125 182.125 C52.10432079 184.63170636 53.08405008 187.13824844 54.06445312 189.64453125 C55.84318666 194.19281136 57.62045498 198.74165829 59.39577675 203.29127121 C63.85521528 214.71879638 68.34249846 226.13534624 72.83154297 237.55126953 C75.10894808 243.3436038 77.38448425 249.13667216 79.66015625 254.9296875 C80.11254669 256.081203 80.56493713 257.23271851 81.03103638 258.41912842 C83.85203972 265.59983007 86.67232123 272.78081487 89.49215698 279.9619751 C102.92252925 314.17209092 102.92252925 314.17209092 116.41210938 348.35888672 C119.95543428 357.31882809 123.47547356 366.28762681 126.98098373 375.26243591 C128.45792687 379.04241904 129.93703873 382.82155433 131.41604424 386.6007309 C132.62684692 389.69532978 133.83557583 392.79070298 135.04150391 395.88720703 C138.04872395 403.60839035 141.09141154 411.31400644 144.1875 419 C144.55788391 419.92675537 144.92826782 420.85351074 145.30987549 421.80834961 C146.32108758 424.31447977 147.35937568 426.8071216 148.41015625 429.296875 C148.83366615 430.35542694 148.83366615 430.35542694 149.26573181 431.43536377 C152.06835596 437.8968879 156.67650225 442.07785901 163.125 444.875 C169.50906282 446.94151744 175.13641771 446.57300528 181.3046875 443.97265625 C187.26680737 440.89263997 190.32242535 436.83626318 193.1875 431 C196.35532408 420.11822292 192.0031962 411.21655923 188 401.25 C187.32559147 399.53819568 186.65253575 397.82585787 185.98071289 396.11303711 C184.12831229 391.40219283 182.25662358 386.69922561 180.38122559 381.99749756 C178.34058192 376.87335137 176.31585047 371.74291976 174.2890625 366.61328125 C171.22574083 358.86541123 168.15613685 351.12007027 165.08032227 343.37715149 C159.102351 328.32744363 153.1667284 313.26137999 147.25 298.1875 C146.567668 296.44933517 146.567668 296.44933517 145.87155151 294.67605591 C143.56510766 288.80033275 141.25921425 282.92439379 138.95361328 277.04833984 C134.82616309 266.52994032 130.69363647 256.01353515 126.56149292 245.49697876 C124.26995405 239.66473418 121.97874365 233.83236056 119.6875 228 C118.77083491 225.66666605 117.85416824 223.33333272 116.9375 221 C115.10416667 216.33333333 113.27083333 211.66666667 111.4375 207 C110.9838205 205.84519135 110.53014099 204.69038269 110.06271362 203.50057983 C109.14530215 201.16532658 108.22792345 198.83006045 107.31057739 196.49478149 C105.03057364 190.69071741 102.75001597 184.88687224 100.46826172 179.08349609 C96.20362328 168.23516973 91.94438743 157.38480725 87.7041626 146.5269165 C85.96303385 142.06856341 84.21918778 137.61127457 82.47476578 133.15420914 C81.29210156 130.13184364 80.11142922 127.10872372 78.93359375 124.08447266 C74.70207091 113.22037702 70.46023977 102.36998948 65.7578125 91.69921875 C65.44232452 90.97912628 65.12683655 90.25903381 64.80178833 89.51712036 C62.5216596 84.43964324 59.86476575 80.15207753 56.1875 76 C55.29611328 74.80310547 55.29611328 74.80310547 54.38671875 73.58203125 C40.78063865 57.60757486 19.64612968 55.41535788 0.1875 53 C-0.60472961 52.90160828 -1.39695923 52.80321655 -2.2131958 52.70184326 C-43.46725376 47.61812649 -84.97990586 43.89035999 -126.5703125 43.796875 C-128.51319908 43.78985285 -130.45608543 43.78276603 -132.39897156 43.77561951 C-138.5784844 43.75620847 -144.75795975 43.75118496 -150.9375 43.75 C-151.99058224 43.74955814 -153.04366447 43.74911629 -154.12865829 43.74866104 C-186.1205831 43.74162077 -217.93279418 44.05889642 -249.8125 47 Z M4.1875 207 C4.06522515 217.58468517 4.45233464 228.11928945 4.90600586 238.69165039 C4.98343098 240.54285738 5.06061843 242.39407433 5.1375885 244.24530029 C5.34593034 249.23962153 5.55762924 254.23379525 5.77000117 259.22794652 C5.99295126 264.48354579 6.21291042 269.73927031 6.4332428 274.99497986 C6.80386074 283.82542504 7.17650109 292.65578295 7.55053711 301.48608398 C8.0282533 312.76428705 8.5027424 324.04262338 8.97615719 335.32100773 C9.38576774 345.07895599 9.79677579 354.83684532 10.20805287 364.59472346 C10.33888577 367.69991942 10.46955192 370.80512237 10.60020256 373.910326 C10.80706724 378.82457935 11.0148083 383.73879498 11.22318077 388.65298462 C11.29881631 390.43935989 11.37420071 392.22574582 11.44929123 394.01214409 C11.96795565 406.34470399 12.55561988 418.67272282 13.1875 431 C15.14547705 430.82400426 15.14547705 430.82400426 17.14300919 430.64445305 C17.87725058 430.57845465 18.61149197 430.51245624 19.3679831 430.44445789 C32.06083325 429.2888458 44.63616933 427.41705947 57.23046875 425.48608398 C60.86883413 424.92887249 64.50851824 424.38094421 68.1484375 423.83398438 C70.46622731 423.48230738 72.78393882 423.13011393 75.1015625 422.77734375 C76.18780914 422.61378891 77.27405579 422.45023407 78.39321899 422.28172302 C79.38961395 422.12808792 80.38600891 421.97445282 81.41259766 421.81616211 C82.28937164 421.68229599 83.16614563 421.54842987 84.06948853 421.4105072 C86.23175924 421.08989327 86.23175924 421.08989327 88.1875 420 C86.22369059 413.92801092 84.07158194 407.96330504 81.73046875 402.02734375 C81.39551895 401.17262985 81.06056915 400.31791595 80.71546936 399.43730164 C79.60416943 396.60316964 78.48959567 393.7703373 77.375 390.9375 C76.57565176 388.90095527 75.77650309 386.86433221 74.97753906 384.82763672 C72.82752955 379.34863641 70.67465781 373.87076501 68.5211792 368.39312744 C66.30555785 362.75617547 64.09239352 357.11825898 61.87890625 351.48046875 C56.31819474 337.31909769 50.75305948 323.1594663 45.1875 309 C41.43708922 299.45849474 37.6869412 289.91688632 33.9375 280.375 C33.48497864 279.22340393 33.03245728 278.07180786 32.56622314 276.88531494 C23.41672614 253.59930536 14.29605007 230.30205316 5.1875 207 C4.8575 207 4.5275 207 4.1875 207 Z M-311.8125 208 C-323.23373409 236.88676973 -334.5962237 265.79650672 -345.94970703 294.70996094 C-349.2030351 302.9948508 -352.45745094 311.27931317 -355.71235657 319.56358337 C-357.98116854 325.33811417 -360.24954769 331.11281403 -362.5168457 336.88793945 C-366.82003457 347.84739443 -371.12794992 358.80493652 -375.45056152 369.75674438 C-377.24731647 374.30912217 -379.04195063 378.86233513 -380.83611298 383.41573524 C-382.06196188 386.52632573 -383.2894177 389.63626023 -384.51904297 392.74536133 C-385.87501476 396.17413985 -387.22698485 399.60447147 -388.578125 403.03515625 C-388.97912415 404.04602798 -389.38012329 405.05689972 -389.79327393 406.09840393 C-391.72758824 411.02135963 -393.4751651 415.8810976 -394.8125 421 C-365.41233981 425.7212557 -365.41233981 425.7212557 -335.9375 429.9375 C-335.07503662 430.05327393 -334.21257324 430.16904785 -333.32397461 430.28833008 C-328.78128099 430.86415135 -324.40000073 431.01400824 -319.8125 431 C-318.46911562 405.63304921 -317.26105064 380.26344083 -316.19620848 354.88331461 C-316.08370432 352.20464145 -315.97067096 349.52599112 -315.85747147 346.84734726 C-315.4601529 337.4455068 -315.06460829 328.04359382 -314.67089844 318.64160156 C-314.30719873 309.95739954 -313.93945716 301.27337477 -313.56991708 292.58941948 C-313.24884731 285.04034156 -312.93055885 277.49114961 -312.61439002 269.94186485 C-312.42715413 265.47219967 -312.23886955 261.00258543 -312.04774094 256.53308487 C-311.86888374 252.34832893 -311.69353548 248.16343958 -311.52072334 243.97842979 C-311.45745873 242.46000607 -311.3930214 240.94163058 -311.32721138 239.42331505 C-310.87388616 228.94165347 -310.74061203 218.49023537 -310.8125 208 C-311.1425 208 -311.4725 208 -311.8125 208 Z M-424 475.4375 C-424.85754883 476.18290039 -424.85754883 476.18290039 -425.73242188 476.94335938 C-428.85558349 479.92275814 -428.85558349 479.92275814 -429.92788506 483.959589 C-429.12305678 489.79627444 -427.78560887 495.34150741 -426.13330078 500.99365234 C-425.71877765 502.44450242 -425.71877765 502.44450242 -425.29588032 503.92466259 C-424.37336713 507.14709507 -423.44055431 510.36645222 -422.5078125 513.5859375 C-421.84308626 515.90068186 -421.17904649 518.21562344 -420.51564026 520.53074646 C-419.08488328 525.51880977 -417.64985333 530.50562217 -416.21102905 535.49136353 C-413.90091273 543.49682049 -411.60156101 551.50534921 -409.30395508 559.5144043 C-408.51341921 562.26970979 -407.72283293 565.02500081 -406.93223572 567.7802887 C-406.73495803 568.46785246 -406.53768035 569.15541622 -406.33442456 569.86381525 C-404.91748053 574.80181037 -403.49917057 579.73941198 -402.08033752 584.67686462 C-394.19557269 612.11795584 -386.37788642 639.57794778 -378.57193756 667.04156494 C-376.77567454 673.3605815 -374.97841595 679.67931485 -373.18115234 685.99804688 C-372.82205151 687.26056589 -372.46295067 688.52308491 -372.09296799 689.82386208 C-371.54668491 691.74447195 -371.00040182 693.66508183 -370.45411325 695.58569014 C-369.17261555 700.09113959 -367.89127368 704.59663334 -366.60998535 709.10214233 C-361.2555732 727.93000064 -355.89715773 746.75671751 -350.53713059 765.58297801 C-349.49429473 769.24582399 -348.45151763 772.9086867 -347.40873718 776.57154846 C-346.5808431 779.47958432 -345.75294656 782.38761948 -344.92504883 785.2956543 C-344.61916802 786.37007796 -344.61916802 786.37007796 -344.30710781 787.46620715 C-341.93393236 795.80208318 -339.56059691 804.1379136 -337.18678802 812.47360927 C-336.2572686 815.73772539 -335.32791009 819.00188717 -334.39890766 822.26615047 C-332.60842933 828.55722449 -330.81642082 834.84785417 -329.02070618 841.13743591 C-325.86136408 852.21272526 -322.72100665 863.29219936 -319.65716934 874.39434624 C-318.30281968 879.30072441 -316.93938122 884.20455976 -315.57582855 889.10838699 C-314.94119515 891.40222291 -314.31144313 893.69741605 -313.68704987 895.99406052 C-307.23551808 919.95783891 -307.23551808 919.95783891 -290.1875 937.25 C-280.7651488 942.57505606 -270.39408474 944.22477472 -259.8125 942 C-248.15522921 938.67359407 -239.34167284 931.55330568 -232.9921875 921.2578125 C-227.93180933 911.57271786 -227.66447119 901.73573539 -227.68119812 891.03530884 C-227.67908241 889.83259098 -227.67696669 888.62987313 -227.67478687 887.39070928 C-227.6708721 884.7575241 -227.66876576 882.12441089 -227.66975212 879.49123001 C-227.6713505 875.20554945 -227.66613055 870.91989202 -227.66012573 866.63421631 C-227.65202369 860.40997957 -227.64707254 854.18574692 -227.64383507 847.96150589 C-227.63832505 838.11001116 -227.62141275 828.25855081 -227.60249329 818.40707397 C-227.59613681 815.03228956 -227.58982828 811.65750506 -227.58351612 808.28272057 C-227.58193236 807.43932873 -227.5803486 806.59593689 -227.57871684 805.72698773 C-227.56078912 796.13163361 -227.54455979 786.53627707 -227.52954102 776.94091797 C-227.52816514 776.06411378 -227.52678927 775.1873096 -227.52537171 774.28393559 C-227.5034715 760.09537479 -227.4926923 745.90682291 -227.48517027 731.7182482 C-227.47707941 717.1283146 -227.45372449 702.53845699 -227.4172166 687.94856679 C-227.39527357 678.9632858 -227.38550171 669.9781614 -227.39171693 660.992855 C-227.39490864 654.82406954 -227.3834494 648.65541711 -227.36082252 642.48667283 C-227.34824382 638.93615573 -227.34187529 635.38593526 -227.35323906 631.83540726 C-227.42324666 607.64714139 -225.7126325 585.88838338 -208.8125 567 C-208.15765625 566.25234375 -207.5028125 565.5046875 -206.828125 564.734375 C-194.89044126 551.92532748 -177.27102917 543.43847646 -159.68359375 542.6640625 C-138.64791185 542.31231453 -119.91565467 546.61326686 -103.8125 561 C-102.78382813 561.90685547 -102.78382813 561.90685547 -101.734375 562.83203125 C-88.67698819 575.06710172 -80.37189991 593.68402894 -79.71831059 611.57883883 C-79.67890547 614.73393439 -79.67148004 617.88768565 -79.67446899 621.04302979 C-79.67164771 622.25406459 -79.66882643 623.46509939 -79.66591966 624.71283221 C-79.65904176 628.06206241 -79.65654897 631.41124406 -79.65586853 634.76047778 C-79.65402302 638.37751047 -79.64641286 641.99453132 -79.63938904 645.61155701 C-79.62788004 651.87673036 -79.61962699 658.14190104 -79.61326981 664.4070816 C-79.60292542 674.31573754 -79.58235717 684.22436017 -79.56015015 694.13299561 C-79.552671 697.52588261 -79.54525718 700.91876976 -79.53786278 704.31165695 C-79.53601221 705.15951941 -79.53416165 706.00738186 -79.532255 706.88093711 C-79.5113404 716.5259275 -79.49250615 726.17092155 -79.47460938 735.81591797 C-79.47297119 736.69728663 -79.47133301 737.57865529 -79.46964519 738.4867321 C-79.44336508 752.76664055 -79.42471751 767.04655158 -79.40801747 781.32647398 C-79.39058045 795.99999005 -79.36171908 810.67345556 -79.3231281 825.34693122 C-79.29976753 834.39055124 -79.28573709 843.43408882 -79.28380047 852.47773924 C-79.28168674 858.67870081 -79.26872117 864.87958046 -79.24732114 871.08050522 C-79.23532723 874.65453474 -79.22811728 878.22840165 -79.23403358 881.80245018 C-79.2403449 885.68475446 -79.22344682 889.56676834 -79.20449829 893.44903564 C-79.21002799 894.56783119 -79.21555768 895.68662674 -79.22125494 896.83932519 C-79.11200294 909.8429328 -75.69154918 921.45576006 -66.79296875 931.11328125 C-60.94929352 936.6803328 -54.57220869 939.95716903 -46.8125 942 C-45.966875 942.226875 -45.12125 942.45375 -44.25 942.6875 C-32.85949173 944.14782157 -22.73296081 941.44322701 -13.28515625 934.9453125 C-1.3348129 925.54362057 2.32455367 912.12007751 6.2746582 898.06225586 C6.76089676 896.35994143 7.24800757 894.65787596 7.73591614 892.95603943 C9.05550335 888.34388993 10.36281267 883.7283416 11.66787744 879.11206508 C13.05466818 874.2146723 14.45270631 869.32049122 15.84941101 864.42591858 C18.20695423 856.15841955 20.55734265 847.88891556 22.90258789 839.61791992 C26.14905858 828.1685677 29.40750519 816.72265315 32.66892111 805.27755058 C42.76565743 769.84145663 52.82323026 734.3945838 62.75561905 698.91204453 C70.00313715 673.02336146 77.39552524 647.17650299 84.79608917 621.33122635 C87.94427695 610.33434142 91.08836408 599.33628265 94.2327528 588.33831096 C94.78315639 586.41324462 95.33361377 584.48819367 95.88407135 582.56314278 C102.55365464 559.23717983 109.19534739 535.90338757 115.8125 512.5625 C116.14711557 511.38227705 116.14711557 511.38227705 116.48849106 510.17821121 C119.05674642 501.11935068 121.62338263 492.06003278 124.1875 483 C122.99942749 481.83283447 122.99942749 481.83283447 121.78735352 480.64208984 C119.56418833 478.38280788 117.92421753 476.20627741 116.125 473.625 C113.56570569 470.7543588 113.56570569 470.7543588 109.9909668 469.73510742 C109.13156494 469.83670166 108.27216309 469.9382959 107.38671875 470.04296875 C106.31784424 470.16800781 105.24896973 470.29304688 104.14770508 470.421875 C96.1965935 471.55043826 88.27200656 472.85215293 80.34747314 474.1517334 C8.26374472 485.90831481 -64.77913531 492.13261072 -137.8125 493 C-138.52891663 493.00860046 -139.24533325 493.01720093 -139.98345947 493.02606201 C-150.59439041 493.14554973 -161.20174146 493.12738041 -171.8125 493 C-172.536651 492.99139954 -173.260802 492.98279907 -174.00689697 492.97393799 C-252.61573277 491.9768086 -330.65769943 484.00941311 -408.17193604 471.21894836 C-409.64433746 470.97739265 -409.64433746 470.97739265 -411.14648438 470.73095703 C-412.00383179 470.58917023 -412.8611792 470.44738342 -413.74450684 470.30130005 C-418.66849921 469.58388997 -420.5992293 472.20892022 -424 475.4375 Z " fill="#020202" transform="translate(958.8125,481)"/>
<path d="M0 0 C1.17054932 0.27408691 1.17054932 0.27408691 2.36474609 0.55371094 C29.54307167 7.21029661 53.35167629 21.24788851 73 41 C73.72243896 41.71857178 73.72243896 41.71857178 74.45947266 42.45166016 C102.31464411 70.45847596 115.28498814 108.83952362 115.24658203 147.77783203 C114.8808093 183.68869686 101.62110445 218.69059124 77 245 C76.17290527 245.8986377 76.17290527 245.8986377 75.32910156 246.81542969 C47.74819745 276.54032412 10.37937681 292.41989424 -29.95703125 294.125 C-68.9917769 294.91060494 -107.02735129 280.63281185 -135.265625 253.63671875 C-136.16796875 252.76660156 -137.0703125 251.89648438 -138 251 C-139.16789063 249.92685547 -139.16789063 249.92685547 -140.359375 248.83203125 C-167.05088218 223.60761046 -180.61497577 185.93269324 -182.28515625 149.89453125 C-183.36984284 110.2432105 -168.89986215 72.09216567 -142 43.0625 C-105.89707147 5.14728423 -51.34944276 -12.1361251 0 0 Z M-102.875 78.5 C-121.8854907 98.7461726 -129.63586351 123.69872115 -129.2734375 150.9921875 C-128.40114487 178.24053657 -114.45311557 200.45900282 -95.125 218.75 C-75.71600489 235.65263669 -50.74016017 242.52482664 -25.41992188 241.18457031 C-0.71785648 239.30051448 22.60385279 227.11548811 39 208.71875 C57.92187615 186.37741359 63.57633182 160.7658542 62 132 C59.34269459 107.54091911 45.01998085 85.96740638 26.6875 70.25 C-13.60742873 38.61016976 -66.64240548 44.39392344 -102.875 78.5 Z " fill="#030303" transform="translate(839,138)"/>
</svg>
